{"title":"Skrillex &amp; Ragga Twins - Ragga Bomb [Music Video] 720p [Sbyk","uid":11426229,"size":57032841,"categoryP":"video","categoryS":"music_videos","magnet":"?xt=urn:btih:a40696d5da23c32436703a5380c2c916cdf44c63&amp;dn=Skrillex+%26amp%3B+Ragga+Twins+-+Ragga+Bomb+%5BMusic+Video%5D+720p+%5BSbyk&amp;tr=udp%3A%2F%2Ftracker.openbittorrent.com%3A80&amp;tr=udp%3A%2F%2Fopen.demonii.com%3A1337&amp;tr=udp%3A%2F%2Ftracker.coppersurfer.tk%3A6969&amp;tr=udp%3A%2F%2Fexodus.desync.com%3A6969","seeders":0,"leechers":1,"uploader":"Sbyky","files":1,"time":1415668976,"description":"General\nComplete name                            : Skrillex &amp; Ragga Twins - Ragga Bomb [Music Video] 720p [Sbyky].MP4\nFormat                                   : MPEG-4\nFormat profile                           : Base Media\nCodec ID                                 : isom\nFile size                                : 54.4 MiB\nDuration                                 : 4mn 27s\nOverall bit rate mode                    : Variable\nOverall bit rate                         : 1 708 Kbps\nEncoded date                             : UTC 2014-03-24 16:10:25\nTagged date                              : UTC 2014-03-24 16:10:25\n\nVideo\nID                                       : 1\nFormat                                   : AVC\nFormat/Info                              : Advanced Video Codec\nFormat profile                           : &lt;a class=&quot;__cf_email__&quot; href=&quot;/cdn-cgi/l/email-protection&quot; data-cfemail=&quot;581539313618146b7669&quot;&gt;[email&amp;#160;protected]&lt;/a&gt;&lt;script cf-hash='f9e31' type=&quot;text/javascript&quot;&gt;\n/* &lt;![CDATA[ */!function(){try{var t=&quot;currentScript&quot;in document?document.currentScript:function(){for(var t=document.getElementsByTagName(&quot;script&quot;),e=t.length;e--;)if(t[e].getAttribute(&quot;cf-hash&quot;))return t[e]}();if(t&amp;&amp;t.previousSibling){var e,r,n,i,c=t.previousSibling,a=c.getAttribute(&quot;data-cfemail&quot;);if(a){for(e=&quot;&quot;,r=parseInt(a.substr(0,2),16),n=2;a.length-n;n+=2)i=parseInt(a.substr(n,2),16)^r,e+=String.fromCharCode(i);e=document.createTextNode(e),c.parentNode.replaceChild(e,c)}}}catch(u){}}();/* ]]&gt; */&lt;/script&gt;\nFormat settings, CABAC                   : Yes\nFormat settings, ReFrames                : 3 frames\nCodec ID                                 : avc1\nCodec ID/Info                            : Advanced Video Coding\nDuration                                 : 4mn 27s\nBit rate                                 : 1 580 Kbps\nWidth                                    : 1 280 pixels\nHeight                                   : 720 pixels\nDisplay aspect ratio                     : 16:9\nFrame rate mode                          : Constant\nFrame rate                               : 25.000 fps\nColor space                              : YUV\nChroma subsampling                       : 4:2:0\nBit depth                                : 8 bits\nScan type                                : Progressive\nBits/(Pixel*Frame)                       : 0.069\nStream size                              : 50.3 MiB (92%)\nEncoded date                             : UTC 2014-03-24 16:10:25\nTagged date                              : UTC 2014-03-24 16:10:25\n\nAudio\nID                                       : 2\nFormat                                   : AAC\nFormat/Info                              : Advanced Audio Codec\nFormat profile                           : LC\nCodec ID                                 : 40\nDuration                                 : 4mn 27s\nBit rate mode                            : Variable\nBit rate                                 : 126 Kbps\nChannel(s)                               : 2 channels\nChannel positions                        : Front: L R\nSampling rate                            : 44.1 KHz\nCompression mode                         : Lossy\nStream size                              : 4.00 MiB (7%)\nEncoded date                             : UTC 2014-03-24 16:10:07\nTagged date                              : UTC 2014-03-24 16:10:07\n\nShared By Sbyky","torrent":{"xt":"urn:btih:a40696d5da23c32436703a5380c2c916cdf44c63","amp;dn":"Skrillex+%26amp%3B+Ragga+Twins+-+Ragga+Bomb+%5BMusic+Video%5D+720p+%5BSbyk","amp;tr":["udp%3A%2F%2Ftracker.openbittorrent.com%3A80","udp%3A%2F%2Fopen.demonii.com%3A1337","udp%3A%2F%2Ftracker.coppersurfer.tk%3A6969","udp%3A%2F%2Fexodus.desync.com%3A6969"],"infoHash":"a40696d5da23c32436703a5380c2c916cdf44c63","infoHashBuffer":{"type":"Buffer","data":[164,6,150,213,218,35,195,36,54,112,58,83,128,194,201,22,205,244,76,99]},"announce":[],"urlList":[]}}